<svg width="136" height="105" viewBox="0 0 136 105" fill="none" xmlns="http://www.w3.org/2000/svg">
<path d="M97.1708 70.3517H94.1533C93.0536 70.3517 92.1611 69.4609 92.1611 68.3633C92.1611 67.2657 93.0536 66.375 94.1533 66.375H97.1708C98.2705 66.375 99.163 67.2657 99.163 68.3633C99.163 69.4609 98.2732 70.3517 97.1708 70.3517Z" fill="white"/>
<path d="M63.3359 70.3517H60.3184C59.2187 70.3517 58.3262 69.4609 58.3262 68.3633C58.3262 67.2657 59.2187 66.375 60.3184 66.375H63.3359C64.4355 66.375 65.328 67.2657 65.328 68.3633C65.328 69.4609 64.4355 70.3517 63.3359 70.3517Z" fill="white"/>
<path d="M127.12 0H108.04C107.905 0 107.769 0.0132559 107.642 0.0397677C107.339 0.0159071 107.034 0 106.725 0H95.7392C94.6395 0 93.747 0.890797 93.747 1.98838C93.747 3.08597 94.6395 3.97677 95.7392 3.97677H106.725C110.84 3.97677 114.187 7.31726 114.187 11.4239V78.9866H40.723V11.4239C40.723 8.58187 39.6764 5.97841 37.9498 3.97677H88.3017C89.4014 3.97677 90.2939 3.08597 90.2939 1.98838C90.2939 0.890797 89.4014 0 88.3017 0H8.87984C3.98438 0 0 3.97677 0 8.8629C0 13.749 3.98438 17.7258 8.87984 17.7258H17.8314V39.7306C17.8314 40.8282 18.7239 41.719 19.8236 41.719C20.9233 41.719 21.8158 40.8282 21.8158 39.7306V17.7258H36.7413V64.6623H21.8131V47.1539C21.8131 46.0563 20.9206 45.1655 19.8209 45.1655C18.7213 45.1655 17.8288 46.0563 17.8288 47.1539V84.6442C17.8288 87.9688 20.5381 90.6704 23.8664 90.6704H36.7359V98.9712C36.7359 102.296 39.4453 104.997 42.7736 104.997H112.128C115.459 104.997 118.166 102.293 118.166 98.9712V17.7231H127.115C132.01 17.7231 135.995 13.7464 135.995 8.86024C135.995 3.97412 132.016 0 127.12 0ZM114.187 82.9634V88.849H40.723V82.9634H114.187ZM8.87984 13.7464C6.18109 13.7464 3.98438 11.5565 3.98438 8.8629C3.98438 6.1693 6.18109 3.97677 8.87984 3.97677H29.2772C33.3917 3.97677 36.7386 7.31726 36.7386 11.4239V13.7464H8.87984ZM36.7386 68.6364V74.522H21.8131V68.6364H36.7386ZM23.8691 86.6936C22.7348 86.6936 21.8158 85.7736 21.8158 84.6442V78.4988H36.7413V86.6936H23.8691ZM112.134 101.023H42.7762C41.642 101.023 40.723 100.103 40.723 98.9739V92.8284H114.187V98.9739C114.187 100.103 113.265 101.023 112.134 101.023ZM127.12 13.7464H118.169V11.4239C118.169 8.57922 117.119 5.97841 115.39 3.97677H127.118C129.819 3.97677 132.016 6.1693 132.016 8.8629C132.016 11.5565 129.819 13.7464 127.12 13.7464Z" fill="white"/>
<path d="M61.8272 57.9972C59.4313 57.9972 57.2027 59.2857 56.0074 61.3589C55.4575 62.3107 55.7869 63.5276 56.7432 64.0737C57.6968 64.6199 58.9133 64.2911 59.4632 63.3394C59.9493 62.4963 60.855 61.9713 61.8272 61.9713C62.7994 61.9713 63.7052 62.4963 64.1913 63.3394C64.5605 63.9783 65.2299 64.3389 65.9205 64.3389C66.2579 64.3389 66.5979 64.254 66.9113 64.0737C67.8649 63.5249 68.1943 62.3107 67.6444 61.3589C66.4518 59.2857 64.2232 57.9972 61.8272 57.9972Z" fill="white"/>
<path d="M74.1758 60.4655C73.0761 60.4655 72.1836 61.3563 72.1836 62.4539V65.8739C72.1836 69.4848 75.1267 72.4223 78.7445 72.4223C82.3623 72.4223 85.3055 69.4848 85.3055 65.8739V62.4539C85.3055 61.3563 84.413 60.4655 83.3133 60.4655H74.1758ZM81.3211 65.8765C81.3211 67.2949 80.1656 68.4482 78.7445 68.4482C77.3234 68.4482 76.168 67.2949 76.168 65.8765V64.4449H81.3184V65.8765H81.3211Z" fill="white"/>
<path d="M95.665 64.6623C96.7647 64.6623 97.6572 63.7715 97.6572 62.6739V59.6622C97.6572 58.5646 96.7647 57.6738 95.665 57.6738C94.5654 57.6738 93.6729 58.5646 93.6729 59.6622V62.6739C93.6729 63.7715 94.5627 64.6623 95.665 64.6623Z" fill="white"/>
</svg>
