<svg width="366" height="81" viewBox="0 0 366 81" fill="none" xmlns="http://www.w3.org/2000/svg">
<g clip-path="url(#clip0)">
<path d="M83.8712 79.0818C82.7427 80.3505 81.4487 80.9849 79.9741 80.9849C79.1917 80.9849 78.4694 80.8187 77.7923 80.4714C77.1152 80.1391 76.5434 79.686 76.0619 79.1271C75.5804 78.5683 75.2042 77.934 74.9334 77.2241C74.6625 76.5142 74.5271 75.7893 74.5271 75.0643C74.5271 74.294 74.6625 73.554 74.9334 72.8441C75.2042 72.1342 75.5654 71.4999 76.0469 70.9562C76.5284 70.4124 77.0851 69.9744 77.7321 69.6573C78.3791 69.3401 79.1014 69.174 79.8688 69.174C80.4406 69.174 80.9672 69.2344 81.4336 69.3552C81.9001 69.476 82.3064 69.6573 82.6825 69.8838C83.0587 70.1104 83.3596 70.3822 83.6305 70.6843C83.9013 71.0015 84.127 71.3337 84.3076 71.7113L83.6154 72.1191C83.2242 71.3489 82.6976 70.8051 82.0506 70.4578C81.4035 70.1104 80.6663 69.9442 79.8537 69.9442C79.1616 69.9442 78.5446 70.0953 77.9879 70.3822C77.4312 70.6692 76.9647 71.0619 76.5585 71.5452C76.1672 72.0285 75.8663 72.5722 75.6556 73.1915C75.445 73.8107 75.3397 74.43 75.3397 75.0794C75.3397 75.7742 75.46 76.4236 75.7008 77.0429C75.9415 77.6621 76.2726 78.2058 76.6939 78.674C77.1152 79.1423 77.6117 79.5198 78.1685 79.7917C78.7403 80.0636 79.3421 80.2146 80.0042 80.2146C80.7114 80.2146 81.3885 80.0485 82.0205 79.7162C82.6524 79.3839 83.2694 78.8704 83.8562 78.1605V75.9101H81.223V75.2456H84.5784V80.9094H83.8562V79.0818H83.8712Z" fill="#781ED7"/>
<path d="M93.5765 80.9094V69.2646H98.3915C98.888 69.2646 99.3394 69.3703 99.7457 69.5818C100.152 69.7932 100.513 70.0651 100.814 70.4125C101.115 70.7598 101.356 71.1525 101.521 71.5754C101.687 72.0134 101.777 72.4363 101.777 72.8743C101.777 73.2972 101.717 73.7201 101.581 74.1128C101.446 74.5055 101.265 74.868 101.025 75.1852C100.784 75.5023 100.498 75.7591 100.152 75.9705C99.8209 76.182 99.4447 76.3179 99.0385 76.3783L101.927 80.9094H100.964L98.1507 76.5143H94.389V80.9094H93.5765ZM94.4191 75.7289H98.4968C98.873 75.7289 99.204 75.6534 99.5049 75.4872C99.8059 75.3211 100.077 75.1096 100.287 74.8378C100.498 74.5659 100.664 74.2638 100.784 73.9165C100.904 73.5691 100.949 73.2217 100.949 72.8592C100.949 72.4816 100.874 72.1342 100.739 71.7869C100.603 71.4395 100.423 71.1374 100.182 70.8807C99.9413 70.6239 99.6704 70.4124 99.3695 70.2463C99.0535 70.0953 98.7225 70.0047 98.3614 70.0047H94.404V75.7289H94.4191Z" fill="#781ED7"/>
<path d="M114.191 69.2495H114.913L119.818 80.8942H118.93L117.305 77.058H111.768L110.143 80.8942H109.24L114.191 69.2495ZM117.08 76.3783L114.552 70.2765L111.964 76.3783H117.08Z" fill="#781ED7"/>
<path d="M128.109 80.9094V69.2646H132.879C133.375 69.2646 133.827 69.3703 134.233 69.5818C134.639 69.7932 135 70.0651 135.301 70.4125C135.602 70.7598 135.828 71.1525 136.009 71.5754C136.174 72.0134 136.264 72.4363 136.264 72.8743C136.264 73.3425 136.189 73.7956 136.024 74.2336C135.873 74.6716 135.647 75.0643 135.347 75.3966C135.061 75.7289 134.715 76.0007 134.308 76.2122C133.902 76.4236 133.466 76.5143 132.969 76.5143H128.937V80.9094H128.109ZM128.937 75.7289H132.939C133.315 75.7289 133.661 75.6534 133.962 75.4872C134.263 75.3362 134.519 75.1096 134.745 74.8529C134.955 74.581 135.121 74.2789 135.241 73.9316C135.362 73.5842 135.407 73.2368 135.407 72.8592C135.407 72.4816 135.347 72.1191 135.196 71.7718C135.061 71.4244 134.88 71.1223 134.639 70.8656C134.399 70.6088 134.128 70.3973 133.827 70.2463C133.526 70.0953 133.195 70.0198 132.834 70.0198H128.922V75.7289H128.937Z" fill="#781ED7"/>
<path d="M153.779 69.2495V80.8942H152.951V75.3211H145.624V80.8942H144.796V69.2495H145.624V74.5659H152.951V69.2495H153.779Z" fill="#781ED7"/>
<path d="M163.349 80.9094V69.2646H164.176V80.9094H163.349Z" fill="#781ED7"/>
<path d="M172.949 75.0039C172.949 74.3091 173.069 73.6144 173.325 72.9196C173.566 72.2249 173.927 71.6056 174.393 71.0619C174.86 70.5182 175.431 70.0651 176.124 69.7177C176.816 69.3703 177.583 69.2042 178.456 69.2042C179.494 69.2042 180.367 69.4458 181.104 69.914C181.826 70.3822 182.383 71.0015 182.744 71.7415L182.052 72.1342C181.841 71.7264 181.601 71.3942 181.33 71.1223C181.059 70.8504 180.758 70.6239 180.427 70.4578C180.096 70.2916 179.765 70.1708 179.419 70.0953C179.073 70.0198 178.727 69.9744 178.396 69.9744C177.658 69.9744 176.996 70.1255 176.44 70.4275C175.868 70.7296 175.386 71.1223 174.995 71.6056C174.604 72.0889 174.303 72.6327 174.107 73.2368C173.912 73.8409 173.806 74.4602 173.806 75.0643C173.806 75.7591 173.927 76.4085 174.167 77.0278C174.408 77.647 174.739 78.2058 175.146 78.674C175.567 79.1423 176.048 79.5349 176.62 79.8068C177.192 80.0938 177.794 80.2297 178.456 80.2297C178.802 80.2297 179.163 80.1844 179.539 80.0938C179.915 80.0032 180.261 79.8672 180.608 79.686C180.939 79.5047 181.255 79.2631 181.556 78.9761C181.856 78.6892 182.097 78.3418 182.293 77.9491L183.015 78.2965C182.819 78.7345 182.549 79.1272 182.218 79.4594C181.887 79.7917 181.51 80.0787 181.089 80.3052C180.668 80.5318 180.231 80.713 179.78 80.8187C179.329 80.9245 178.862 80.9849 178.411 80.9849C177.613 80.9849 176.891 80.8036 176.229 80.4563C175.567 80.1089 174.995 79.6558 174.529 79.0818C174.047 78.523 173.671 77.8736 173.415 77.1637C173.084 76.4689 172.949 75.744 172.949 75.0039Z" fill="#781ED7"/>
<path d="M202.305 80.9094V69.2646H206.157C207.075 69.2646 207.872 69.4156 208.565 69.7177C209.257 70.0198 209.829 70.4427 210.295 70.9713C210.746 71.4999 211.093 72.104 211.318 72.8139C211.544 73.5238 211.664 74.2638 211.664 75.0643C211.664 75.9554 211.529 76.7559 211.273 77.4658C211.017 78.1756 210.656 78.7949 210.175 79.3084C209.693 79.8219 209.106 80.2146 208.429 80.4865C207.752 80.7583 206.985 80.9094 206.157 80.9094H202.305ZM210.822 75.0643C210.822 74.3394 210.716 73.6597 210.506 73.0405C210.295 72.4212 209.994 71.8926 209.603 71.4395C209.212 70.9864 208.715 70.639 208.143 70.3973C207.572 70.1406 206.894 70.0198 206.142 70.0198H203.133V80.1542H206.157C206.924 80.1542 207.587 80.0334 208.173 79.7615C208.76 79.5048 209.242 79.1423 209.633 78.6892C210.024 78.2361 210.325 77.6923 210.521 77.0731C210.731 76.4538 210.822 75.7893 210.822 75.0643Z" fill="#781ED7"/>
<path d="M228.216 80.1542V80.9094H220.482V69.2646H228.065V70.0198H221.309V74.5961H227.208V75.3211H221.309V80.1542H228.216Z" fill="#781ED7"/>
<path d="M243.534 71.1978C242.781 70.352 241.713 69.9291 240.344 69.9291C239.215 69.9291 238.388 70.1406 237.861 70.5786C237.334 71.0166 237.078 71.5905 237.078 72.3306C237.078 72.7082 237.139 73.0102 237.274 73.2519C237.409 73.4936 237.605 73.705 237.891 73.8862C238.162 74.0675 238.523 74.2034 238.944 74.3242C239.366 74.4451 239.877 74.5659 240.479 74.7018C241.096 74.8378 241.668 74.9737 242.164 75.1398C242.676 75.2909 243.097 75.5023 243.458 75.744C243.819 75.9856 244.09 76.2726 244.271 76.6351C244.466 76.9825 244.557 77.4205 244.557 77.934C244.557 78.4475 244.451 78.9006 244.256 79.2782C244.06 79.6558 243.774 79.9881 243.413 80.2448C243.052 80.5016 242.616 80.6979 242.104 80.8338C241.592 80.9698 241.036 81.0302 240.419 81.0302C238.613 81.0302 237.078 80.4563 235.83 79.2933L236.266 78.6136C236.762 79.1272 237.349 79.535 238.072 79.837C238.794 80.1391 239.576 80.2901 240.449 80.2901C241.457 80.2901 242.255 80.1089 242.826 79.7313C243.398 79.3537 243.684 78.7949 243.684 78.0397C243.684 77.6621 243.609 77.3298 243.458 77.058C243.308 76.7861 243.082 76.5596 242.781 76.3632C242.48 76.1669 242.104 76.0007 241.653 75.8497C241.201 75.7138 240.66 75.5778 240.058 75.4419C239.441 75.306 238.884 75.17 238.418 75.019C237.936 74.868 237.545 74.6867 237.229 74.4602C236.913 74.2336 236.657 73.9618 236.507 73.6446C236.356 73.3274 236.236 72.9196 236.236 72.4363C236.236 71.9077 236.341 71.4395 236.537 71.0468C236.732 70.639 237.018 70.3067 237.379 70.0197C237.74 69.7328 238.162 69.5364 238.673 69.3854C239.17 69.2495 239.727 69.174 240.344 69.174C241.096 69.174 241.758 69.2797 242.345 69.5062C242.932 69.7328 243.473 70.0651 243.94 70.5333L243.534 71.1978Z" fill="#781ED7"/>
<path d="M253.194 80.9094V69.2646H254.021V80.9094H253.194Z" fill="#781ED7"/>
<path d="M272.153 79.0818C271.024 80.3505 269.73 80.9849 268.256 80.9849C267.473 80.9849 266.751 80.8187 266.074 80.4714C265.397 80.1391 264.825 79.686 264.343 79.1271C263.862 78.5683 263.486 77.934 263.215 77.2241C262.944 76.5142 262.809 75.7893 262.809 75.0643C262.809 74.294 262.944 73.554 263.215 72.8441C263.486 72.1342 263.847 71.4999 264.328 70.9562C264.81 70.4124 265.367 69.9744 266.014 69.6573C266.661 69.3401 267.383 69.174 268.15 69.174C268.722 69.174 269.249 69.2344 269.715 69.3552C270.182 69.476 270.588 69.6573 270.964 69.8838C271.34 70.1104 271.641 70.3822 271.912 70.6843C272.183 71.0015 272.408 71.3337 272.589 71.7113L271.897 72.1191C271.506 71.3489 270.979 70.8051 270.332 70.4578C269.685 70.1104 268.948 69.9442 268.135 69.9442C267.443 69.9442 266.826 70.0953 266.269 70.3822C265.713 70.6692 265.246 71.0619 264.84 71.5452C264.449 72.0285 264.148 72.5722 263.937 73.1915C263.726 73.8107 263.621 74.43 263.621 75.0794C263.621 75.7742 263.741 76.4236 263.982 77.0429C264.223 77.6621 264.554 78.2058 264.975 78.674C265.397 79.1423 265.893 79.5198 266.45 79.7917C267.022 80.0636 267.624 80.2146 268.286 80.2146C268.993 80.2146 269.67 80.0485 270.302 79.7162C270.934 79.3839 271.551 78.8704 272.138 78.1605V75.9101H269.504V75.2456H272.86V80.9094H272.138V79.0818H272.153Z" fill="#781ED7"/>
<path d="M282.701 70.8354V80.9094H281.873V69.2646H282.505L290.645 79.5199V69.2646H291.473V80.9094H290.705L282.701 70.8354Z" fill="#781ED7"/>
<path d="M17.5597 18.6075C19.9371 16.8102 21.1408 14.5598 21.1408 11.8563C21.1408 9.19804 20.1026 7.02314 18.0111 5.31644C16.2506 3.86651 14.0538 3.14154 11.4055 3.14154H2.49778L0 4.31961V38.7707H11.4055C15.1672 38.7707 18.1164 37.6983 20.2681 35.5385C22.2694 33.5449 23.2775 30.9773 23.2775 27.866C23.2775 24.7697 22.1339 22.1719 19.8468 20.0725C19.0945 19.4231 18.3271 18.9247 17.5597 18.6075ZM4.69462 7.38562H11.3905C12.835 7.38562 14.0086 7.79342 14.9114 8.5939C15.9346 9.56052 16.4462 10.6329 16.4462 11.826C16.4462 13.2911 16.0249 14.4843 15.1823 15.3905C14.2193 16.4175 12.9704 16.931 11.3905 16.931H4.69462V7.38562ZM17.0481 32.2913C15.6487 33.7865 13.7679 34.5266 11.4055 34.5266H4.69462V21.1751H11.3905C13.9184 21.1751 15.7691 21.9001 16.9428 23.35C18.0261 24.6036 18.5678 26.1593 18.5678 28.0019C18.5678 29.769 18.0562 31.2038 17.0481 32.2913Z" fill="#781ED7"/>
<path d="M46.54 23.1084H57.3286L59.2395 19.0455V18.819H46.54V7.44603H57.3286L59.2395 3.3832V3.14154H44.3281L41.8453 4.31961V38.7858H61.2558L63.1667 34.7229V34.4813H46.54V23.1084Z" fill="#781ED7"/>
<path d="M71.7284 7.20438V7.44603H81.7948V39.7222H82.0355L86.5044 37.5926V7.44603H94.6598L96.5557 3.3832V3.14154H73.6394L71.7284 7.20438Z" fill="#781ED7"/>
<path d="M106.427 7.20438V7.44603H116.493V39.7222H116.734L121.187 37.5926V7.44603H129.358L131.254 3.3832V3.14154H108.337L106.427 7.20438Z" fill="#781ED7"/>
<path d="M154.05 2.67331C150.469 2.67331 147.58 3.82117 145.353 6.1018C143.231 8.29181 142.178 11.086 142.178 14.4842V39.7222H142.419L146.888 37.5926V23.1083H161.227V39.7222H161.468L165.937 37.5926V14.4691C165.937 10.9953 164.884 8.20119 162.762 6.0867C160.46 3.80607 157.556 2.67331 154.05 2.67331ZM161.227 18.8189H146.888V14.4691C146.888 12.3546 147.459 10.648 148.573 9.34905C149.972 7.73298 151.793 6.91739 154.05 6.91739C156.307 6.91739 158.128 7.73298 159.527 9.34905C160.655 10.648 161.212 12.3697 161.212 14.4691V18.8189H161.227Z" fill="#781ED7"/>
<path d="M230.232 2.67331C226.651 2.67331 223.762 3.82117 221.535 6.1018C219.413 8.2767 218.36 11.0708 218.36 14.4842V27.4581C218.36 30.8715 219.413 33.6657 221.535 35.8406C223.762 38.1212 226.666 39.2691 230.232 39.2691C233.798 39.2691 236.702 38.1363 238.929 35.8406C241.051 33.6657 242.104 30.8715 242.104 27.4581V14.4691C242.104 11.0406 241.051 8.2465 238.929 6.0867C236.702 3.80607 233.798 2.67331 230.232 2.67331ZM237.409 27.4581C237.409 29.5726 236.838 31.2793 235.724 32.5782C234.325 34.1943 232.504 35.0099 230.247 35.0099C227.99 35.0099 226.169 34.1943 224.77 32.5782C223.642 31.2793 223.085 29.5726 223.085 27.4581V14.4691C223.085 12.3546 223.657 10.648 224.77 9.34905C226.169 7.73298 227.99 6.91739 230.247 6.91739C232.504 6.91739 234.325 7.73298 235.724 9.34905C236.853 10.648 237.409 12.3697 237.409 14.4691V27.4581Z" fill="#781ED7"/>
<path d="M281.241 23.3198C283.363 21.16 284.416 18.3658 284.416 14.9373C284.416 11.5239 283.363 8.7298 281.241 6.5549C279.014 4.27427 276.11 3.1264 272.544 3.1264H263.636L261.138 4.30448V39.7222H261.379L265.848 37.5926V26.7332H271.566L280.624 39.7071H280.865L285.003 37.7436L276.862 26.0686C278.518 25.5249 279.977 24.6036 281.241 23.3198ZM265.833 22.4891V7.38559H272.529C274.786 7.38559 276.607 8.20118 278.006 9.81725C279.134 11.1161 279.691 12.8379 279.691 14.9373C279.691 17.2029 279.119 18.9095 278.006 20.0574C276.411 21.6735 274.575 22.4891 272.529 22.4891H265.833Z" fill="#781ED7"/>
<path d="M324.125 3.35299V3.14154H303.796L301.9 7.20438V7.44603H316.872L301.675 38.5441V38.7858H322.439L324.35 34.7229V34.4813H308.822L324.125 3.35299Z" fill="#781ED7"/>
<path d="M362.825 6.08669C360.538 3.80607 357.634 2.6582 354.128 2.6582C350.547 2.6582 347.658 3.80607 345.431 6.08669C343.309 8.2767 342.256 11.0708 342.256 14.4691V39.7222H342.497L346.966 37.5926V23.1083H361.305V39.7222H361.546L366.015 37.5926V14.4691C366 10.9953 364.947 8.20118 362.825 6.08669ZM361.305 18.8189H346.966V14.4691C346.966 12.3546 347.538 10.6479 348.651 9.34905C350.05 7.73297 351.871 6.91739 354.128 6.91739C356.385 6.91739 358.206 7.73297 359.605 9.34905C360.734 10.6479 361.29 12.3697 361.29 14.4691V18.8189H361.305Z" fill="#781ED7"/>
<path d="M208.459 28.017L194.526 34.9042L194.571 0.196345L194.481 0L176.244 9.00168L176.319 13.4874L176.425 13.6989L189.861 7.06843L189.891 41.7158L189.982 41.9273L208.625 32.7293L208.55 28.2435L208.459 28.017Z" fill="#F1CA01"/>
<path d="M208.459 28.017L194.526 34.9042L194.571 0.196345L194.481 0L176.244 9.00168L176.319 13.4874L176.425 13.6989L189.861 7.06843L189.891 41.7158L189.982 41.9273L208.625 32.7293L208.55 28.2435L208.459 28.017Z" fill="#F19F01"/>
</g>
<defs>
<clipPath id="clip0">
<rect width="366" height="81" fill="white"/>
</clipPath>
</defs>
</svg>
